<svg width="23" height="19" viewBox="0 0 23 19" fill="none" xmlns="http://www.w3.org/2000/svg">
<path d="M21.539 10.7891C21.8799 10.4467 22.0713 9.98315 22.0713 9.49996C22.0713 9.01676 21.8799 8.55323 21.539 8.21079L14.2473 0.919123C14.078 0.749827 13.8771 0.615534 13.6559 0.523912C13.4347 0.432289 13.1976 0.385132 12.9582 0.385132C12.4746 0.385132 12.0109 0.577214 11.669 0.919123C11.3271 1.26103 11.135 1.72476 11.135 2.20829C11.135 2.69182 11.3271 3.15555 11.669 3.49746L15.8486 7.67704L2.74984 7.67704C2.26637 7.67704 1.8027 7.8691 1.46084 8.21096C1.11898 8.55282 0.926922 9.01649 0.926922 9.49996C0.926922 9.98342 1.11898 10.4471 1.46084 10.789C1.8027 11.1308 2.26637 11.3229 2.74984 11.3229L15.8486 11.3229L11.669 15.5025C11.4997 15.6718 11.3654 15.8727 11.2738 16.0939C11.1822 16.3151 11.135 16.5522 11.135 16.7916C11.135 17.031 11.1822 17.2681 11.2738 17.4893C11.3654 17.7105 11.4997 17.9115 11.669 18.0808C11.8383 18.2501 12.0393 18.3844 12.2605 18.476C12.4817 18.5676 12.7188 18.6148 12.9582 18.6148C13.1976 18.6148 13.4347 18.5676 13.6559 18.476C13.8771 18.3844 14.078 18.2501 14.2473 18.0808L21.539 10.7891Z" fill="#FFF8DE"/>
</svg>
