<svg width="24" height="25" viewBox="0 0 24 25" fill="none" xmlns="http://www.w3.org/2000/svg">
<path opacity="0.5" d="M22 10.228H2V19.228C2 20.0237 2.31607 20.7867 2.87868 21.3493C3.44129 21.912 4.20435 22.228 5 22.228H19C19.7956 22.228 20.5587 21.912 21.1213 21.3493C21.6839 20.7867 22 20.0237 22 19.228V10.228ZM7 8.22803C6.73478 8.22803 6.48043 8.12267 6.29289 7.93513C6.10536 7.7476 6 7.49324 6 7.22803V3.22803C6 2.96281 6.10536 2.70846 6.29289 2.52092C6.48043 2.33338 6.73478 2.22803 7 2.22803C7.26522 2.22803 7.51957 2.33338 7.70711 2.52092C7.89464 2.70846 8 2.96281 8 3.22803V7.22803C8 7.49324 7.89464 7.7476 7.70711 7.93513C7.51957 8.12267 7.26522 8.22803 7 8.22803ZM17 8.22803C16.7348 8.22803 16.4804 8.12267 16.2929 7.93513C16.1054 7.7476 16 7.49324 16 7.22803V3.22803C16 2.96281 16.1054 2.70846 16.2929 2.52092C16.4804 2.33338 16.7348 2.22803 17 2.22803C17.2652 2.22803 17.5196 2.33338 17.7071 2.52092C17.8946 2.70846 18 2.96281 18 3.22803V7.22803C18 7.49324 17.8946 7.7476 17.7071 7.93513C17.5196 8.12267 17.2652 8.22803 17 8.22803Z" fill="#A6AEBF"/>
<path d="M19 4.22803H18V7.22803C18 7.49324 17.8946 7.7476 17.7071 7.93513C17.5196 8.12267 17.2652 8.22803 17 8.22803C16.7348 8.22803 16.4804 8.12267 16.2929 7.93513C16.1054 7.7476 16 7.49324 16 7.22803V4.22803H8V7.22803C8 7.49324 7.89464 7.7476 7.70711 7.93513C7.51957 8.12267 7.26522 8.22803 7 8.22803C6.73478 8.22803 6.48043 8.12267 6.29289 7.93513C6.10536 7.7476 6 7.49324 6 7.22803V4.22803H5C4.20435 4.22803 3.44129 4.5441 2.87868 5.10671C2.31607 5.66932 2 6.43238 2 7.22803V10.228H22V7.22803C22 6.43238 21.6839 5.66932 21.1213 5.10671C20.5587 4.5441 19.7956 4.22803 19 4.22803Z" fill="#A6AEBF"/>
</svg>
