<svg width="15" height="16" viewBox="0 0 15 16" fill="none" xmlns="http://www.w3.org/2000/svg">
<path fill-rule="evenodd" clip-rule="evenodd" d="M14.2416 0.228027C14.4427 0.228027 14.6356 0.307933 14.7779 0.450166C14.9201 0.592398 15 0.785307 15 0.986454V7.72803C15 7.92917 14.9201 8.12208 14.7779 8.26432C14.6356 8.40655 14.4427 8.48645 14.2416 8.48645C14.0404 8.48645 13.8475 8.40655 13.7053 8.26432C13.5631 8.12208 13.4831 7.92917 13.4831 7.72803V2.81679L2.58876 13.7112H7.5C7.70115 13.7112 7.89406 13.7911 8.03629 13.9333C8.17852 14.0755 8.25843 14.2685 8.25843 14.4696C8.25843 14.6707 8.17852 14.8637 8.03629 15.0059C7.89406 15.1481 7.70115 15.228 7.5 15.228H0.758427C0.55728 15.228 0.364371 15.1481 0.222138 15.0059C0.0799057 14.8637 0 14.6707 0 14.4696V7.72803C-2.96825e-09 7.62843 0.0196175 7.52981 0.057732 7.43779C0.0958465 7.34577 0.151712 7.26216 0.222138 7.19174C0.292565 7.12131 0.376173 7.06545 0.46819 7.02733C0.560206 6.98922 0.658829 6.9696 0.758427 6.9696C0.858025 6.9696 0.956648 6.98922 1.04866 7.02733C1.14068 7.06545 1.22429 7.12131 1.29472 7.19174C1.36514 7.26216 1.42101 7.34577 1.45912 7.43779C1.49724 7.52981 1.51685 7.62843 1.51685 7.72803V12.6393L12.4112 1.74488H7.5C7.29885 1.74488 7.10594 1.66498 6.96371 1.52274C6.82148 1.38051 6.74157 1.1876 6.74157 0.986454C6.74157 0.785307 6.82148 0.592398 6.96371 0.450166C7.10594 0.307933 7.29885 0.228027 7.5 0.228027H14.2416Z" fill="#A6AEBF"/>
</svg>
