<svg width="28" height="27" viewBox="0 0 28 27" fill="none" xmlns="http://www.w3.org/2000/svg">
<path d="M24.9338 0.894531H10.7116V5.33898H14.2671V7.11675H2.71159C1.20048 7.11675 0.0449219 8.27231 0.0449219 9.78342V19.5612C0.0449219 21.0723 1.20048 22.2279 2.71159 22.2279H3.60048V26.7612L9.20048 22.2279H15.156V16.0056H24.9338C26.4449 16.0056 27.6005 14.8501 27.6005 13.339V3.5612C27.6005 2.05009 26.4449 0.894531 24.9338 0.894531ZM9.64492 18.5834L9.20048 17.1612H6.44492L5.91159 18.5834H3.77825L6.71159 10.6723H8.84492L11.7783 18.5834H9.64492ZM23.156 11.5612V13.339C22.0005 13.339 20.756 12.9834 19.6894 12.4501C18.6227 12.9834 17.3783 13.2501 16.1338 13.339L16.0449 11.5612C16.6671 11.5612 17.2894 11.4723 17.9116 11.2945C17.1116 10.4945 16.5783 9.51675 16.3116 8.45009H18.1783C18.4449 9.25009 18.9783 9.87231 19.6005 10.4056C20.5783 9.60564 21.2005 8.45009 21.2894 7.11675H15.956V5.33898H18.6227V3.5612H20.4005V5.33898H23.3338L23.4227 6.22786C23.5116 8.09453 22.8005 9.9612 21.4671 11.2945C22.0894 11.4723 22.6227 11.5612 23.156 11.5612Z" fill="#A6AEBF"/>
</svg>
